<svg width="314" height="92" viewBox="0 0 314 92" fill="none" xmlns="http://www.w3.org/2000/svg">
<path d="M32.4062 57.3438C31.7812 55.4062 31.1562 53.6875 30.5312 52.1875C29.9688 50.6875 29.4688 49.4062 29.0312 48.3438C26.5938 49.1562 23.9375 49.7188 21.0625 50.0312C21.0625 54.0312 21.1562 57.4375 21.3438 60.25C21.4062 62 21.4688 63.5 21.5312 64.75C21.6562 65.9375 21.75 66.9688 21.8125 67.8438C21.9375 68.7188 22.0625 69.5 22.1875 70.1875C22.3125 70.9375 22.5 71.6562 22.75 72.3438C21.5 73.2812 20.2812 73.9688 19.0938 74.4062C17.9688 74.8438 16.9688 75.1562 16.0938 75.3438C15.0312 75.5938 14.0938 75.6562 13.2812 75.5312C12.9688 74.6562 12.6875 73.7188 12.4375 72.7188C12.1875 71.7812 12 70.4688 11.875 68.7812C11.8125 67.1562 11.7812 65.0625 11.7812 62.5C11.7812 59.9375 11.875 56.6562 12.0625 52.6562C12.125 52.2188 12.1562 51.7812 12.1562 51.3438C12.1562 50.9062 12.1875 50.4688 12.25 50.0312C11.6875 49.9688 11.0938 49.9062 10.4688 49.8438C9.90625 49.7812 9.34375 49.7188 8.78125 49.6562C8.40625 48.6562 8.15625 47.7812 8.03125 47.0312C7.90625 46.2188 7.84375 45.5625 7.84375 45.0625C7.84375 44.4375 7.90625 43.9375 8.03125 43.5625C9.03125 43.75 10.0312 43.8438 11.0312 43.8438H12.4375C12.5625 41.2188 12.6875 38.5625 12.8125 35.875C12.9375 33.125 13.0312 30.4688 13.0938 27.9062C13.2188 25.2812 13.3125 22.8125 13.375 20.5C13.4375 18.125 13.5 15.9688 13.5625 14.0312C11.6875 15.2812 10.0625 16.9062 8.6875 18.9062C7.3125 20.9062 6.375 23.2188 5.875 25.8438C5.0625 25.7188 4.375 25.3438 3.8125 24.7188C3.25 24.0312 2.78125 23.3438 2.40625 22.6562C1.96875 21.8438 1.59375 20.9375 1.28125 19.9375C0.96875 18.75 0.96875 17.5625 1.28125 16.375C1.59375 15.125 2.0625 13.9688 2.6875 12.9062C3.3125 11.7812 4.03125 10.8125 4.84375 10C5.65625 9.125 6.4375 8.4375 7.1875 7.9375C8.5 7.125 9.84375 6.40625 11.2188 5.78125C12.6562 5.09375 14.25 4.53125 16 4.09375C16.6875 3.40625 17.4375 2.78125 18.25 2.21875C19.125 1.65625 19.9375 1.3125 20.6875 1.1875C21.75 0.9375 22.3438 1.59375 22.4688 3.15625C23.0312 3.09375 23.625 3.0625 24.25 3.0625C24.875 3 25.5312 2.96875 26.2188 2.96875C28.5938 2.96875 31.0625 3.34375 33.625 4.09375C36.1875 4.84375 38.5312 6.0625 40.6562 7.75C42.8438 9.375 44.625 11.5313 46 14.2188C47.375 16.8438 48.0625 20.0625 48.0625 23.875C48.0625 28.1875 47.0312 32.1562 44.9688 35.7812C42.9688 39.4062 40.0938 42.4062 36.3438 44.7812C36.7812 45.9062 37.3438 47.3125 38.0312 49C38.7188 50.6875 39.4062 52.5938 40.0938 54.7188C41.0938 57.3438 42.1562 59.8125 43.2812 62.125C44.4688 64.375 45.6875 66.3438 46.9375 68.0312C48.1875 69.7188 49.5 71.0625 50.875 72.0625C52.25 73.125 53.625 73.75 55 73.9375C54.1875 75.1875 53.25 76.0625 52.1875 76.5625C51.125 77.0625 50.0625 77.375 49 77.5C47.8125 77.6875 46.5625 77.6875 45.25 77.5C43.4375 77.125 41.875 76.25 40.5625 74.875C39.25 73.5 38.0938 71.8438 37.0938 69.9062C36.1562 67.9688 35.2812 65.9062 34.4688 63.7188C33.7188 61.4688 33.0312 59.3438 32.4062 57.3438ZM21.5312 17.4062C21.5312 18.7812 21.5 20.4375 21.4375 22.375C21.375 24.3125 21.3125 26.4062 21.25 28.6562C21.25 30.9062 21.2188 33.2812 21.1562 35.7812C21.0938 38.2188 21.0625 40.6562 21.0625 43.0938C22.75 42.8438 24.5938 42.4375 26.5938 41.875C28.6562 41.3125 30.5625 40.375 32.3125 39.0625C34.0625 37.75 35.5312 36 36.7188 33.8125C37.9062 31.625 38.5 28.8125 38.5 25.375C38.5 22.75 38.0312 20.5312 37.0938 18.7188C36.2188 16.8438 35.0625 15.3438 33.625 14.2188C32.1875 13.0312 30.5938 12.1875 28.8438 11.6875C27.1562 11.125 25.4688 10.8438 23.7812 10.8438C23.4688 10.8438 23.1562 10.8438 22.8438 10.8438C22.5312 10.8438 22.1875 10.875 21.8125 10.9375C21.625 12.9375 21.5312 15.0938 21.5312 17.4062ZM65.7812 68.0312C61.4062 68.0312 58.0312 66.5625 55.6562 63.625C53.2812 60.6875 52.0938 56.8438 52.0938 52.0938C52.0938 48.7812 52.5625 45.6875 53.5 42.8125C54.5 39.875 55.8125 37.3438 57.4375 35.2188C59.0625 33.0938 60.9375 31.4375 63.0625 30.25C65.25 29 67.5312 28.375 69.9062 28.375C72.2188 28.375 74.1875 29.2188 75.8125 30.9062C77.4375 32.5312 78.25 34.875 78.25 37.9375C78.25 39.9375 77.8125 41.9375 76.9375 43.9375C76.0625 45.875 74.9062 47.625 73.4688 49.1875C72.0938 50.6875 70.5625 51.9062 68.875 52.8438C67.1875 53.7812 65.5625 54.25 64 54.25C63 54.25 62.1562 54.125 61.4688 53.875C60.7812 53.625 60.1562 53.25 59.5938 52.75C59.7812 56.3125 60.5625 58.8125 61.9375 60.25C63.3125 61.625 65.0938 62.3125 67.2812 62.3125C68.7812 62.3125 70.0938 62 71.2188 61.375C72.4062 60.75 73.4062 60.0312 74.2188 59.2188C75.0312 58.4062 75.6875 57.5938 76.1875 56.7812C76.6875 55.9062 77.0312 55.25 77.2188 54.8125C77.4062 54.4375 77.7188 54.25 78.1562 54.25C78.6562 54.25 78.9062 54.625 78.9062 55.375C78.9062 56.0625 78.6562 57.125 78.1562 58.5625C77.7188 59.9375 76.9688 61.3438 75.9062 62.7812C74.8438 64.1562 73.4688 65.375 71.7812 66.4375C70.1562 67.5 68.1562 68.0312 65.7812 68.0312ZM70.0938 32.4062C69.7188 32.4062 69 32.8125 67.9375 33.625C66.9375 34.375 65.8438 35.5 64.6562 37C63.5312 38.5 62.4688 40.3125 61.4688 42.4375C60.5312 44.5 59.9375 46.8438 59.6875 49.4688C63.4375 48.5938 66.4062 47.2188 68.5938 45.3438C70.7812 43.4688 71.875 40.7188 71.875 37.0938C71.875 35.2812 71.6562 34.0625 71.2188 33.4375C70.7812 32.75 70.4062 32.4062 70.0938 32.4062ZM99.1562 49.1875C100.531 49.6875 101.844 50.1562 103.094 50.5938C104.344 51.0312 105.438 51.5625 106.375 52.1875C107.312 52.8125 108.062 53.5625 108.625 54.4375C109.188 55.25 109.469 56.2812 109.469 57.5312C109.469 59.0312 109.125 60.4375 108.438 61.75C107.812 63.0625 106.875 64.2188 105.625 65.2188C104.375 66.2188 102.844 67 101.031 67.5625C99.2812 68.1875 97.3125 68.5 95.125 68.5C92.6875 68.5 90.7188 68.25 89.2188 67.75C87.7188 67.3125 86.5625 66.7812 85.75 66.1562C84.9375 65.5312 84.4062 64.9062 84.1562 64.2812C83.9062 63.6562 83.7812 63.1562 83.7812 62.7812C83.7812 62.0312 83.9375 61.2188 84.25 60.3438C84.5625 59.4062 85.1562 58.4062 86.0312 57.3438C86.4062 56.9062 86.8125 56.5 87.25 56.125C88.125 55.375 89 54.9062 89.875 54.7188C89.75 56.1562 89.9062 57.3438 90.3438 58.2812C90.8438 59.1562 91.4688 59.8438 92.2188 60.3438C93.0312 60.8438 93.9062 61.1875 94.8438 61.375C95.8438 61.5625 96.7812 61.6562 97.6562 61.6562C98.5312 61.6562 99.4062 61.5312 100.281 61.2812C101.219 61.0312 102.062 60.7188 102.812 60.3438C103.562 59.9062 104.156 59.4375 104.594 58.9375C105.094 58.375 105.344 57.7812 105.344 57.1562C105.344 56.4688 105.062 55.9062 104.5 55.4688C103.938 55.0312 103.219 54.6875 102.344 54.4375C101.531 54.125 100.625 53.9062 99.625 53.7812C98.6875 53.5938 97.7812 53.4062 96.9062 53.2188C96.0312 53.0312 94.8438 52.7812 93.3438 52.4688C91.9062 52.0938 90.4688 51.5312 89.0312 50.7812C87.6562 50.0312 86.4375 49.0312 85.375 47.7812C84.375 46.5312 83.875 44.875 83.875 42.8125C83.875 40.4375 84.4688 38.375 85.6562 36.625C86.9062 34.8125 88.4062 33.3125 90.1562 32.125C91.9688 30.875 93.875 29.9375 95.875 29.3125C97.875 28.6875 99.6562 28.375 101.219 28.375C102.031 28.375 102.906 28.5 103.844 28.75C104.781 28.9375 105.656 29.3125 106.469 29.875C107.281 30.375 107.938 31.0625 108.438 31.9375C109 32.8125 109.281 33.9375 109.281 35.3125C109.281 36.6875 109.156 37.8125 108.906 38.6875C108.719 39.5 108.406 40.1562 107.969 40.6562C107.594 41.0938 107.125 41.375 106.562 41.5C106 41.625 105.344 41.6875 104.594 41.6875C104.094 41.6875 103.625 41.625 103.188 41.5C102.812 41.375 102.406 41.25 101.969 41.125C101.531 41 101.125 40.7812 100.75 40.4688C101.375 39.7188 101.844 39 102.156 38.3125C102.531 37.625 102.719 36.7812 102.719 35.7812C102.719 34.9062 102.469 34.125 101.969 33.4375C101.531 32.75 100.781 32.4062 99.7188 32.4062C98.5938 32.4062 97.5 32.625 96.4375 33.0625C95.4375 33.5 94.5312 34.0938 93.7188 34.8438C92.9688 35.5938 92.3438 36.4688 91.8438 37.4688C91.4062 38.4062 91.1875 39.4375 91.1875 40.5625C91.1875 42.25 91.8125 43.8438 93.0625 45.3438C94.375 46.8438 96.4062 48.125 99.1562 49.1875ZM150.156 25.2812C149.469 25.1562 148.531 25.0312 147.344 24.9062C146.219 24.7812 145.062 24.6875 143.875 24.625C142.5 24.5625 141.031 24.5312 139.469 24.5312C137.906 24.4062 135.938 24.4062 133.562 24.5312C131.25 24.5938 128.812 24.625 126.25 24.625C126.188 26.25 126.062 27.9062 125.875 29.5938C125.75 31.2812 125.625 32.9375 125.5 34.5625C125.188 37.5625 124.906 40.625 124.656 43.75C124.469 46.875 124.375 49.8438 124.375 52.6562C124.375 55.4688 124.531 58.0312 124.844 60.3438C125.219 62.5938 125.875 64.375 126.812 65.6875C126.062 66.25 125.25 66.6875 124.375 67C123.5 67.25 122.719 67.4375 122.031 67.5625C121.219 67.75 120.406 67.8438 119.594 67.8438C118.844 67.8438 118.219 67.5938 117.719 67.0938C117.219 66.5938 116.938 65.7188 116.875 64.4688C116.75 62.3438 116.719 60.2188 116.781 58.0938C116.906 55.9062 117.031 53.625 117.156 51.25C117.344 48.875 117.531 46.3438 117.719 43.6562C117.906 40.9062 118.094 37.9062 118.281 34.6562C118.469 31.2812 118.562 28 118.562 24.8125C116.188 24.875 114.188 24.9062 112.562 24.9062C110.938 24.9062 110.031 24.875 109.844 24.8125C109.656 24.6875 109.438 24.4062 109.188 23.9688C108.938 23.5938 108.625 23.0312 108.25 22.2812C107.812 21.5312 107.281 20.4688 106.656 19.0938C107.844 19.0938 109.156 19.0938 110.594 19.0938C111.969 19.0938 113.25 19.0625 114.438 19C115.812 18.9375 117.188 18.875 118.562 18.8125C118.5 17.8125 118.469 16.75 118.469 15.625C118.406 14.75 118.375 13.7812 118.375 12.7188C118.375 11.5938 118.344 10.5625 118.281 9.625C118.281 9.25 118.719 8.8125 119.594 8.3125C120.531 7.75 121.531 7.25 122.594 6.8125C123.656 6.375 124.625 6.09375 125.5 5.96875C126.438 5.84375 126.906 6.0625 126.906 6.625C126.906 7.1875 126.875 8.5625 126.812 10.75C126.812 12.875 126.75 15.4688 126.625 18.5312C127.25 18.5312 127.719 18.5 128.031 18.4375C131.344 18.3125 134 18.1875 136 18.0625C138.062 17.875 139.75 17.8438 141.062 17.9688C142.375 18.0938 143.531 18.4062 144.531 18.9062C145.531 19.4062 146.656 20.2188 147.906 21.3438C148.344 21.7188 148.719 22.125 149.031 22.5625C149.344 22.9375 149.594 23.375 149.781 23.875C150.031 24.3125 150.156 24.7812 150.156 25.2812ZM160.281 50.875C160.156 53.3125 159.719 55.5625 158.969 57.625C158.281 59.6875 157.312 61.5 156.062 63.0625C154.812 64.5625 153.312 65.75 151.562 66.625C149.875 67.5 148 67.9688 145.938 68.0312C144.125 68.0938 142.406 67.6562 140.781 66.7188C139.219 65.7812 137.844 64.4688 136.656 62.7812C135.469 61.0938 134.562 59.0938 133.938 56.7812C133.375 54.4062 133.219 51.8438 133.469 49.0938C133.656 45.9062 134.25 43.1875 135.25 40.9375C136.25 38.625 137.312 36.7188 138.438 35.2188C139.562 33.7188 140.594 32.625 141.531 31.9375C142.531 31.1875 143.156 30.75 143.406 30.625C143.844 30.4375 144.25 30.4062 144.625 30.5312C145 30.5938 145.406 30.6875 145.844 30.8125C145.969 30.875 146.094 31.0312 146.219 31.2812C146.469 31.7188 146.625 32.5312 146.688 33.7188C147 33.0312 147.406 32.4688 147.906 32.0312C148.406 31.5938 148.906 31.2812 149.406 31.0938C150.031 30.8438 150.656 30.6875 151.281 30.625C151.719 30.5625 152.469 30.9062 153.531 31.6562C154.656 32.4062 155.719 33.5938 156.719 35.2188C157.781 36.8438 158.688 38.9688 159.438 41.5938C160.188 44.1562 160.469 47.25 160.281 50.875ZM153.906 49.75C153.969 48.25 153.906 46.75 153.719 45.25C153.594 43.6875 153.344 42.2812 152.969 41.0312C152.656 39.7188 152.25 38.6875 151.75 37.9375C151.25 37.125 150.75 36.7188 150.25 36.7188C149.688 36.8438 149.062 37.125 148.375 37.5625C147.812 37.9375 147.188 38.5312 146.5 39.3438C145.812 40.1562 145.156 41.3125 144.531 42.8125C144.469 42.625 144.406 42.2812 144.344 41.7812C144.281 41.3438 144.219 40.7812 144.156 40.0938C144.156 39.3438 144.219 38.3438 144.344 37.0938C143.469 38.1562 142.781 39.4062 142.281 40.8438C141.844 42.2812 141.5 43.6562 141.25 44.9688C141 46.5312 140.812 48.0938 140.688 49.6562C140.625 51.3438 140.688 53 140.875 54.625C141.125 56.25 141.5 57.6875 142 58.9375C142.562 60.1875 143.219 61.1875 143.969 61.9375C144.719 62.6875 145.625 63.0312 146.688 62.9688C147.75 62.9062 148.688 62.4688 149.5 61.6562C150.312 60.8438 151.031 59.8125 151.656 58.5625C152.281 57.3125 152.781 55.9062 153.156 54.3438C153.531 52.7812 153.781 51.25 153.906 49.75ZM190.75 38.2188C190.75 39.0938 190.5 40 190 40.9375C189.562 41.8125 189 42.6562 188.312 43.4688C187.625 44.2812 186.844 45 185.969 45.625C185.156 46.1875 184.375 46.5312 183.625 46.6562C184.125 44.7188 184.281 43.2188 184.094 42.1562C183.906 41.0938 183.594 40.3125 183.156 39.8125C182.656 39.25 182.031 38.9375 181.281 38.875C180.156 38.875 179.062 39.5312 178 40.8438C177 42.0938 176.125 43.6562 175.375 45.5312C174.625 47.3438 174.031 49.3125 173.594 51.4375C173.156 53.5 172.938 55.375 172.938 57.0625C172.875 58.25 172.906 59.4062 173.031 60.5312C173.094 61.4688 173.188 62.4375 173.312 63.4375C173.5 64.4375 173.75 65.2188 174.062 65.7812C173.688 66.0938 173.062 66.4688 172.188 66.9062C171.375 67.3438 170.5 67.625 169.562 67.75C168.688 67.875 167.875 67.7188 167.125 67.2812C166.438 66.8438 166.062 65.9062 166 64.4688C165.875 63.0938 165.781 61.5625 165.719 59.875C165.719 58.125 165.719 56.4062 165.719 54.7188C165.781 52.9688 165.844 51.25 165.906 49.5625C165.969 47.875 166.062 46.3125 166.188 44.875C166.312 42.125 166.375 40 166.375 38.5C166.375 37 166.344 35.5625 166.281 34.1875C166.281 33.9375 166.688 33.5938 167.5 33.1562C168.375 32.6562 169.312 32.2188 170.312 31.8438C171.375 31.4688 172.344 31.25 173.219 31.1875C174.094 31.125 174.531 31.3125 174.531 31.75C174.531 32.4375 174.438 33.8125 174.25 35.875C174.125 37.875 173.938 39.9688 173.688 42.1562C174.125 40.9688 174.688 39.6875 175.375 38.3125C176.125 36.9375 176.969 35.6562 177.906 34.4688C178.844 33.2812 179.906 32.3125 181.094 31.5625C182.281 30.75 183.594 30.3438 185.031 30.3438C186.156 30.3438 187.062 30.6875 187.75 31.375C188.5 32.0625 189.094 32.8438 189.531 33.7188C189.969 34.5938 190.281 35.4688 190.469 36.3438C190.656 37.2188 190.75 37.8438 190.75 38.2188Z" fill="#B71C1C"/>
<path d="M243.906 71.5938C243.281 72.4688 242.562 73.125 241.75 73.5625C240.938 74.0625 240.156 74.4062 239.406 74.5938C238.531 74.8438 237.594 74.9375 236.594 74.875C236.219 74.875 235.812 74.7812 235.375 74.5938C235 74.4688 234.594 74.2812 234.156 74.0312C233.719 73.8438 233.344 73.5312 233.031 73.0938C232.156 69.9688 231.375 66.9375 230.688 64C230 61.0625 229.406 58.4375 228.906 56.125C228.281 53.4375 227.75 50.9062 227.312 48.5312C225.625 48.4688 223.094 48.4688 219.719 48.5312C216.406 48.5312 212.812 48.7188 208.938 49.0938C207.75 52.8438 206.812 56 206.125 58.5625C205.438 61.125 204.938 63.25 204.625 64.9375C204.312 66.625 204.188 68 204.25 69.0625C204.312 70.1875 204.5 71.1562 204.812 71.9688C203.938 72.8438 203.062 73.4688 202.188 73.8438C201.375 74.2812 200.625 74.5625 199.938 74.6875C199.125 74.875 198.344 74.9375 197.594 74.875C196.594 74.75 195.781 74.5625 195.156 74.3125C194.531 74.125 194.062 73.7812 193.75 73.2812C193.5 72.8438 193.406 72.1875 193.469 71.3125C193.594 70.4375 193.844 69.2812 194.219 67.8438C194.594 66.5938 195.281 64.375 196.281 61.1875C197.344 57.9375 198.531 54.25 199.844 50.125C197.469 50.3125 195.625 50.1875 194.312 49.75C193.062 49.3125 192.188 48.125 191.688 46.1875C192.688 45.875 193.75 45.5938 194.875 45.3438C196.062 45.0312 197.188 44.75 198.25 44.5C199.438 44.25 200.656 44.0312 201.906 43.8438C203.219 39.7188 204.562 35.6562 205.938 31.6562C207.312 27.6562 208.594 24.0625 209.781 20.875L215.219 6.34375C215.344 5.96875 216 5.5625 217.188 5.125C218.375 4.6875 219.688 4.34375 221.125 4.09375C222.562 3.78125 223.938 3.625 225.25 3.625C226.562 3.625 227.406 3.90625 227.781 4.46875C227.969 5.78125 228.219 7.40625 228.531 9.34375C228.906 11.2812 229.25 13.1562 229.562 14.9688C229.938 17.0938 230.375 19.2812 230.875 21.5312C231.438 24.6562 232.031 28.125 232.656 31.9375C233.344 35.75 234.188 39.8125 235.188 44.125C236.188 48.4375 237.375 52.9062 238.75 57.5312C240.125 62.1562 241.844 66.8438 243.906 71.5938ZM217.844 42.25C219.844 42.1875 221.5 42.1562 222.812 42.1562C224.125 42.1562 225.25 42.1875 226.188 42.25L225.906 40.8438C225.531 38.5312 225.125 36.0625 224.688 33.4375C224.312 30.8125 223.906 28.2188 223.469 25.6562C223.094 23.0938 222.719 20.6562 222.344 18.3438C221.969 16.0312 221.656 14 221.406 12.25C220.781 13.875 220.062 15.8438 219.25 18.1562C218.438 20.4062 217.562 22.875 216.625 25.5625C215.688 28.25 214.719 31.0625 213.719 34C212.781 36.9375 211.844 39.8438 210.906 42.7188C212.031 42.5938 213.156 42.5 214.281 42.4375C215.406 42.375 216.594 42.3125 217.844 42.25ZM265.656 29.875C267.406 29.875 269.031 30.375 270.531 31.375C272.031 32.375 273.312 33.6875 274.375 35.3125C275.438 36.9375 276.281 38.8125 276.906 40.9375C277.531 43 277.844 45.1562 277.844 47.4062C277.844 49.6562 277.594 52.0312 277.094 54.5312C276.594 57.0312 275.812 59.3438 274.75 61.4688C273.688 63.5938 272.312 65.375 270.625 66.8125C268.938 68.1875 266.875 68.875 264.438 68.875C262.5 68.875 260.656 68.1875 258.906 66.8125C257.219 65.375 255.906 63.5938 254.969 61.4688C254.844 63.6562 254.562 65.875 254.125 68.125C253.688 70.4375 253.469 73.1875 253.469 76.375C253.469 77.3125 253.5 78.375 253.562 79.5625C253.625 80.75 253.719 81.9375 253.844 83.125C253.969 84.3125 254.156 85.4062 254.406 86.4062C254.656 87.4062 254.938 88.1875 255.25 88.75C254.188 89.375 253.219 89.8438 252.344 90.1562C251.531 90.4688 250.812 90.6875 250.188 90.8125C249.5 91 248.844 91.0938 248.219 91.0938C247.406 91.0938 246.875 90.75 246.625 90.0625C246.375 89.375 246.25 88.1562 246.25 86.4062C246.25 85.2812 246.281 83.6562 246.344 81.5312C246.469 79.4688 246.594 77.0938 246.719 74.4062C246.906 71.7188 247.062 68.9062 247.188 65.9688C247.375 62.9688 247.531 60.0312 247.656 57.1562C247.844 54.2812 247.969 51.625 248.031 49.1875C248.156 46.6875 248.219 44.5938 248.219 42.9062C248.219 40.8438 248.188 39.25 248.125 38.125C248.062 36.9375 247.969 36.0625 247.844 35.5C247.781 34.875 247.688 34.4375 247.562 34.1875C247.438 33.9375 247.281 33.6562 247.094 33.3438C247.656 32.9062 248.312 32.5312 249.062 32.2188C249.875 31.8438 250.656 31.5938 251.406 31.4688C252.219 31.2812 252.938 31.2188 253.562 31.2812C254.25 31.3438 254.781 31.5 255.156 31.75C255.469 32.0625 255.688 32.5312 255.812 33.1562C256 33.7812 256.156 34.7188 256.281 35.9688C257.469 34.3438 258.812 32.9375 260.312 31.75C261.875 30.5 263.656 29.875 265.656 29.875ZM262 63.3438C263.125 63.3438 264.188 62.8125 265.188 61.75C266.25 60.6875 267.156 59.3438 267.906 57.7188C268.719 56.0312 269.344 54.1875 269.781 52.1875C270.281 50.125 270.531 48.0938 270.531 46.0938C270.531 43.9062 270.312 42.125 269.875 40.75C269.5 39.3125 269 38.1875 268.375 37.375C267.812 36.5 267.188 35.9062 266.5 35.5938C265.875 35.2188 265.312 35.0312 264.812 35.0312C263.625 35.0312 262.5 35.5312 261.438 36.5312C260.375 37.4688 259.438 38.7188 258.625 40.2812C257.812 41.7812 257.156 43.4688 256.656 45.3438C256.219 47.2188 256 49.0938 256 50.9688C256 52.7188 256.156 54.3438 256.469 55.8438C256.844 57.3438 257.312 58.6562 257.875 59.7812C258.438 60.9062 259.062 61.7812 259.75 62.4062C260.5 63.0312 261.25 63.3438 262 63.3438ZM301.562 29.875C303.312 29.875 304.938 30.375 306.438 31.375C307.938 32.375 309.219 33.6875 310.281 35.3125C311.344 36.9375 312.188 38.8125 312.812 40.9375C313.438 43 313.75 45.1562 313.75 47.4062C313.75 49.6562 313.5 52.0312 313 54.5312C312.5 57.0312 311.719 59.3438 310.656 61.4688C309.594 63.5938 308.219 65.375 306.531 66.8125C304.844 68.1875 302.781 68.875 300.344 68.875C298.406 68.875 296.562 68.1875 294.812 66.8125C293.125 65.375 291.812 63.5938 290.875 61.4688C290.75 63.6562 290.469 65.875 290.031 68.125C289.594 70.4375 289.375 73.1875 289.375 76.375C289.375 77.3125 289.406 78.375 289.469 79.5625C289.531 80.75 289.625 81.9375 289.75 83.125C289.875 84.3125 290.062 85.4062 290.312 86.4062C290.562 87.4062 290.844 88.1875 291.156 88.75C290.094 89.375 289.125 89.8438 288.25 90.1562C287.438 90.4688 286.719 90.6875 286.094 90.8125C285.406 91 284.75 91.0938 284.125 91.0938C283.312 91.0938 282.781 90.75 282.531 90.0625C282.281 89.375 282.156 88.1562 282.156 86.4062C282.156 85.2812 282.188 83.6562 282.25 81.5312C282.375 79.4688 282.5 77.0938 282.625 74.4062C282.812 71.7188 282.969 68.9062 283.094 65.9688C283.281 62.9688 283.438 60.0312 283.562 57.1562C283.75 54.2812 283.875 51.625 283.938 49.1875C284.062 46.6875 284.125 44.5938 284.125 42.9062C284.125 40.8438 284.094 39.25 284.031 38.125C283.969 36.9375 283.875 36.0625 283.75 35.5C283.688 34.875 283.594 34.4375 283.469 34.1875C283.344 33.9375 283.188 33.6562 283 33.3438C283.562 32.9062 284.219 32.5312 284.969 32.2188C285.781 31.8438 286.562 31.5938 287.312 31.4688C288.125 31.2812 288.844 31.2188 289.469 31.2812C290.156 31.3438 290.688 31.5 291.062 31.75C291.375 32.0625 291.594 32.5312 291.719 33.1562C291.906 33.7812 292.062 34.7188 292.188 35.9688C293.375 34.3438 294.719 32.9375 296.219 31.75C297.781 30.5 299.562 29.875 301.562 29.875ZM297.906 63.3438C299.031 63.3438 300.094 62.8125 301.094 61.75C302.156 60.6875 303.062 59.3438 303.812 57.7188C304.625 56.0312 305.25 54.1875 305.688 52.1875C306.188 50.125 306.438 48.0938 306.438 46.0938C306.438 43.9062 306.219 42.125 305.781 40.75C305.406 39.3125 304.906 38.1875 304.281 37.375C303.719 36.5 303.094 35.9062 302.406 35.5938C301.781 35.2188 301.219 35.0312 300.719 35.0312C299.531 35.0312 298.406 35.5312 297.344 36.5312C296.281 37.4688 295.344 38.7188 294.531 40.2812C293.719 41.7812 293.062 43.4688 292.562 45.3438C292.125 47.2188 291.906 49.0938 291.906 50.9688C291.906 52.7188 292.062 54.3438 292.375 55.8438C292.75 57.3438 293.219 58.6562 293.781 59.7812C294.344 60.9062 294.969 61.7812 295.656 62.4062C296.406 63.0312 297.156 63.3438 297.906 63.3438Z" fill="black"/>
</svg>
