<svg width="358" height="120" viewBox="0 0 358 120" fill="none" xmlns="http://www.w3.org/2000/svg">
<circle cx="60" cy="60" r="60" fill="#E4E3E3"/>
<path d="M73.4062 78.3438C72.7812 76.4062 72.1562 74.6875 71.5312 73.1875C70.9688 71.6875 70.4688 70.4062 70.0312 69.3438C67.5938 70.1562 64.9375 70.7188 62.0625 71.0312C62.0625 75.0312 62.1562 78.4375 62.3438 81.25C62.4062 83 62.4688 84.5 62.5312 85.75C62.6562 86.9375 62.75 87.9688 62.8125 88.8438C62.9375 89.7188 63.0625 90.5 63.1875 91.1875C63.3125 91.9375 63.5 92.6562 63.75 93.3438C62.5 94.2812 61.2812 94.9688 60.0938 95.4062C58.9688 95.8438 57.9688 96.1562 57.0938 96.3438C56.0312 96.5938 55.0938 96.6562 54.2812 96.5312C53.9688 95.6562 53.6875 94.7188 53.4375 93.7188C53.1875 92.7812 53 91.4688 52.875 89.7812C52.8125 88.1562 52.7812 86.0625 52.7812 83.5C52.7812 80.9375 52.875 77.6562 53.0625 73.6562C53.125 73.2188 53.1562 72.7812 53.1562 72.3438C53.1562 71.9062 53.1875 71.4688 53.25 71.0312C52.6875 70.9688 52.0938 70.9062 51.4688 70.8438C50.9062 70.7812 50.3438 70.7188 49.7812 70.6562C49.4062 69.6562 49.1562 68.7812 49.0312 68.0312C48.9062 67.2188 48.8438 66.5625 48.8438 66.0625C48.8438 65.4375 48.9062 64.9375 49.0312 64.5625C50.0312 64.75 51.0312 64.8438 52.0312 64.8438H53.4375C53.5625 62.2188 53.6875 59.5625 53.8125 56.875C53.9375 54.125 54.0312 51.4688 54.0938 48.9062C54.2188 46.2812 54.3125 43.8125 54.375 41.5C54.4375 39.125 54.5 36.9688 54.5625 35.0312C52.6875 36.2812 51.0625 37.9062 49.6875 39.9062C48.3125 41.9062 47.375 44.2188 46.875 46.8438C46.0625 46.7188 45.375 46.3438 44.8125 45.7188C44.25 45.0312 43.7812 44.3438 43.4062 43.6562C42.9688 42.8438 42.5938 41.9375 42.2812 40.9375C41.9688 39.75 41.9688 38.5625 42.2812 37.375C42.5938 36.125 43.0625 34.9688 43.6875 33.9062C44.3125 32.7812 45.0312 31.8125 45.8438 31C46.6562 30.125 47.4375 29.4375 48.1875 28.9375C49.5 28.125 50.8438 27.4062 52.2188 26.7812C53.6562 26.0937 55.25 25.5312 57 25.0938C57.6875 24.4062 58.4375 23.7812 59.25 23.2188C60.125 22.6562 60.9375 22.3125 61.6875 22.1875C62.75 21.9375 63.3438 22.5938 63.4688 24.1562C64.0312 24.0938 64.625 24.0625 65.25 24.0625C65.875 24 66.5312 23.9688 67.2188 23.9688C69.5938 23.9688 72.0625 24.3438 74.625 25.0938C77.1875 25.8438 79.5312 27.0625 81.6562 28.75C83.8438 30.375 85.625 32.5312 87 35.2188C88.375 37.8438 89.0625 41.0625 89.0625 44.875C89.0625 49.1875 88.0312 53.1562 85.9688 56.7812C83.9688 60.4062 81.0938 63.4062 77.3438 65.7812C77.7812 66.9062 78.3438 68.3125 79.0312 70C79.7188 71.6875 80.4062 73.5938 81.0938 75.7188C82.0938 78.3438 83.1562 80.8125 84.2812 83.125C85.4688 85.375 86.6875 87.3438 87.9375 89.0312C89.1875 90.7188 90.5 92.0625 91.875 93.0625C93.25 94.125 94.625 94.75 96 94.9375C95.1875 96.1875 94.25 97.0625 93.1875 97.5625C92.125 98.0625 91.0625 98.375 90 98.5C88.8125 98.6875 87.5625 98.6875 86.25 98.5C84.4375 98.125 82.875 97.25 81.5625 95.875C80.25 94.5 79.0938 92.8438 78.0938 90.9062C77.1562 88.9688 76.2812 86.9062 75.4688 84.7188C74.7188 82.4688 74.0312 80.3438 73.4062 78.3438ZM62.5312 38.4062C62.5312 39.7812 62.5 41.4375 62.4375 43.375C62.375 45.3125 62.3125 47.4062 62.25 49.6562C62.25 51.9062 62.2188 54.2812 62.1562 56.7812C62.0938 59.2188 62.0625 61.6562 62.0625 64.0938C63.75 63.8438 65.5938 63.4375 67.5938 62.875C69.6562 62.3125 71.5625 61.375 73.3125 60.0625C75.0625 58.75 76.5312 57 77.7188 54.8125C78.9062 52.625 79.5 49.8125 79.5 46.375C79.5 43.75 79.0312 41.5312 78.0938 39.7188C77.2188 37.8438 76.0625 36.3438 74.625 35.2188C73.1875 34.0312 71.5938 33.1875 69.8438 32.6875C68.1562 32.125 66.4688 31.8438 64.7812 31.8438C64.4688 31.8438 64.1562 31.8438 63.8438 31.8438C63.5312 31.8438 63.1875 31.875 62.8125 31.9375C62.625 33.9375 62.5312 36.0938 62.5312 38.4062ZM106.781 89.0312C102.406 89.0312 99.0312 87.5625 96.6562 84.625C94.2812 81.6875 93.0938 77.8438 93.0938 73.0938C93.0938 69.7812 93.5625 66.6875 94.5 63.8125C95.5 60.875 96.8125 58.3438 98.4375 56.2188C100.062 54.0938 101.938 52.4375 104.062 51.25C106.25 50 108.531 49.375 110.906 49.375C113.219 49.375 115.188 50.2188 116.812 51.9062C118.438 53.5312 119.25 55.875 119.25 58.9375C119.25 60.9375 118.812 62.9375 117.938 64.9375C117.062 66.875 115.906 68.625 114.469 70.1875C113.094 71.6875 111.562 72.9062 109.875 73.8438C108.188 74.7812 106.562 75.25 105 75.25C104 75.25 103.156 75.125 102.469 74.875C101.781 74.625 101.156 74.25 100.594 73.75C100.781 77.3125 101.562 79.8125 102.938 81.25C104.312 82.625 106.094 83.3125 108.281 83.3125C109.781 83.3125 111.094 83 112.219 82.375C113.406 81.75 114.406 81.0312 115.219 80.2188C116.031 79.4062 116.688 78.5938 117.188 77.7812C117.688 76.9062 118.031 76.25 118.219 75.8125C118.406 75.4375 118.719 75.25 119.156 75.25C119.656 75.25 119.906 75.625 119.906 76.375C119.906 77.0625 119.656 78.125 119.156 79.5625C118.719 80.9375 117.969 82.3438 116.906 83.7812C115.844 85.1562 114.469 86.375 112.781 87.4375C111.156 88.5 109.156 89.0312 106.781 89.0312ZM111.094 53.4062C110.719 53.4062 110 53.8125 108.938 54.625C107.938 55.375 106.844 56.5 105.656 58C104.531 59.5 103.469 61.3125 102.469 63.4375C101.531 65.5 100.938 67.8438 100.688 70.4688C104.438 69.5938 107.406 68.2188 109.594 66.3438C111.781 64.4688 112.875 61.7188 112.875 58.0938C112.875 56.2812 112.656 55.0625 112.219 54.4375C111.781 53.75 111.406 53.4062 111.094 53.4062ZM140.156 70.1875C141.531 70.6875 142.844 71.1562 144.094 71.5938C145.344 72.0312 146.438 72.5625 147.375 73.1875C148.312 73.8125 149.062 74.5625 149.625 75.4375C150.188 76.25 150.469 77.2812 150.469 78.5312C150.469 80.0312 150.125 81.4375 149.438 82.75C148.812 84.0625 147.875 85.2188 146.625 86.2188C145.375 87.2188 143.844 88 142.031 88.5625C140.281 89.1875 138.312 89.5 136.125 89.5C133.688 89.5 131.719 89.25 130.219 88.75C128.719 88.3125 127.562 87.7812 126.75 87.1562C125.938 86.5312 125.406 85.9062 125.156 85.2812C124.906 84.6562 124.781 84.1562 124.781 83.7812C124.781 83.0312 124.938 82.2188 125.25 81.3438C125.562 80.4062 126.156 79.4062 127.031 78.3438C127.406 77.9062 127.812 77.5 128.25 77.125C129.125 76.375 130 75.9062 130.875 75.7188C130.75 77.1562 130.906 78.3438 131.344 79.2812C131.844 80.1562 132.469 80.8438 133.219 81.3438C134.031 81.8438 134.906 82.1875 135.844 82.375C136.844 82.5625 137.781 82.6562 138.656 82.6562C139.531 82.6562 140.406 82.5312 141.281 82.2812C142.219 82.0312 143.062 81.7188 143.812 81.3438C144.562 80.9062 145.156 80.4375 145.594 79.9375C146.094 79.375 146.344 78.7812 146.344 78.1562C146.344 77.4688 146.062 76.9062 145.5 76.4688C144.938 76.0312 144.219 75.6875 143.344 75.4375C142.531 75.125 141.625 74.9062 140.625 74.7812C139.688 74.5938 138.781 74.4062 137.906 74.2188C137.031 74.0312 135.844 73.7812 134.344 73.4688C132.906 73.0938 131.469 72.5312 130.031 71.7812C128.656 71.0312 127.438 70.0312 126.375 68.7812C125.375 67.5312 124.875 65.875 124.875 63.8125C124.875 61.4375 125.469 59.375 126.656 57.625C127.906 55.8125 129.406 54.3125 131.156 53.125C132.969 51.875 134.875 50.9375 136.875 50.3125C138.875 49.6875 140.656 49.375 142.219 49.375C143.031 49.375 143.906 49.5 144.844 49.75C145.781 49.9375 146.656 50.3125 147.469 50.875C148.281 51.375 148.938 52.0625 149.438 52.9375C150 53.8125 150.281 54.9375 150.281 56.3125C150.281 57.6875 150.156 58.8125 149.906 59.6875C149.719 60.5 149.406 61.1562 148.969 61.6562C148.594 62.0938 148.125 62.375 147.562 62.5C147 62.625 146.344 62.6875 145.594 62.6875C145.094 62.6875 144.625 62.625 144.188 62.5C143.812 62.375 143.406 62.25 142.969 62.125C142.531 62 142.125 61.7812 141.75 61.4688C142.375 60.7188 142.844 60 143.156 59.3125C143.531 58.625 143.719 57.7812 143.719 56.7812C143.719 55.9062 143.469 55.125 142.969 54.4375C142.531 53.75 141.781 53.4062 140.719 53.4062C139.594 53.4062 138.5 53.625 137.438 54.0625C136.438 54.5 135.531 55.0938 134.719 55.8438C133.969 56.5938 133.344 57.4688 132.844 58.4688C132.406 59.4062 132.188 60.4375 132.188 61.5625C132.188 63.25 132.812 64.8438 134.062 66.3438C135.375 67.8438 137.406 69.125 140.156 70.1875ZM191.156 46.2812C190.469 46.1562 189.531 46.0312 188.344 45.9062C187.219 45.7812 186.062 45.6875 184.875 45.625C183.5 45.5625 182.031 45.5312 180.469 45.5312C178.906 45.4062 176.938 45.4062 174.562 45.5312C172.25 45.5938 169.812 45.625 167.25 45.625C167.188 47.25 167.062 48.9062 166.875 50.5938C166.75 52.2812 166.625 53.9375 166.5 55.5625C166.188 58.5625 165.906 61.625 165.656 64.75C165.469 67.875 165.375 70.8438 165.375 73.6562C165.375 76.4688 165.531 79.0312 165.844 81.3438C166.219 83.5938 166.875 85.375 167.812 86.6875C167.062 87.25 166.25 87.6875 165.375 88C164.5 88.25 163.719 88.4375 163.031 88.5625C162.219 88.75 161.406 88.8438 160.594 88.8438C159.844 88.8438 159.219 88.5938 158.719 88.0938C158.219 87.5938 157.938 86.7188 157.875 85.4688C157.75 83.3438 157.719 81.2188 157.781 79.0938C157.906 76.9062 158.031 74.625 158.156 72.25C158.344 69.875 158.531 67.3438 158.719 64.6562C158.906 61.9062 159.094 58.9062 159.281 55.6562C159.469 52.2812 159.562 49 159.562 45.8125C157.188 45.875 155.188 45.9062 153.562 45.9062C151.938 45.9062 151.031 45.875 150.844 45.8125C150.656 45.6875 150.438 45.4062 150.188 44.9688C149.938 44.5938 149.625 44.0312 149.25 43.2812C148.812 42.5312 148.281 41.4688 147.656 40.0938C148.844 40.0938 150.156 40.0938 151.594 40.0938C152.969 40.0938 154.25 40.0625 155.438 40C156.812 39.9375 158.188 39.875 159.562 39.8125C159.5 38.8125 159.469 37.75 159.469 36.625C159.406 35.75 159.375 34.7812 159.375 33.7188C159.375 32.5938 159.344 31.5625 159.281 30.625C159.281 30.25 159.719 29.8125 160.594 29.3125C161.531 28.75 162.531 28.25 163.594 27.8125C164.656 27.375 165.625 27.0938 166.5 26.9688C167.438 26.8437 167.906 27.0625 167.906 27.625C167.906 28.1875 167.875 29.5625 167.812 31.75C167.812 33.875 167.75 36.4688 167.625 39.5312C168.25 39.5312 168.719 39.5 169.031 39.4375C172.344 39.3125 175 39.1875 177 39.0625C179.062 38.875 180.75 38.8438 182.062 38.9688C183.375 39.0938 184.531 39.4062 185.531 39.9062C186.531 40.4062 187.656 41.2188 188.906 42.3438C189.344 42.7188 189.719 43.125 190.031 43.5625C190.344 43.9375 190.594 44.375 190.781 44.875C191.031 45.3125 191.156 45.7812 191.156 46.2812ZM201.281 71.875C201.156 74.3125 200.719 76.5625 199.969 78.625C199.281 80.6875 198.312 82.5 197.062 84.0625C195.812 85.5625 194.312 86.75 192.562 87.625C190.875 88.5 189 88.9688 186.938 89.0312C185.125 89.0938 183.406 88.6562 181.781 87.7188C180.219 86.7812 178.844 85.4688 177.656 83.7812C176.469 82.0938 175.562 80.0938 174.938 77.7812C174.375 75.4062 174.219 72.8438 174.469 70.0938C174.656 66.9062 175.25 64.1875 176.25 61.9375C177.25 59.625 178.312 57.7188 179.438 56.2188C180.562 54.7188 181.594 53.625 182.531 52.9375C183.531 52.1875 184.156 51.75 184.406 51.625C184.844 51.4375 185.25 51.4062 185.625 51.5312C186 51.5938 186.406 51.6875 186.844 51.8125C186.969 51.875 187.094 52.0312 187.219 52.2812C187.469 52.7188 187.625 53.5312 187.688 54.7188C188 54.0312 188.406 53.4688 188.906 53.0312C189.406 52.5938 189.906 52.2812 190.406 52.0938C191.031 51.8438 191.656 51.6875 192.281 51.625C192.719 51.5625 193.469 51.9062 194.531 52.6562C195.656 53.4062 196.719 54.5938 197.719 56.2188C198.781 57.8438 199.688 59.9688 200.438 62.5938C201.188 65.1562 201.469 68.25 201.281 71.875ZM194.906 70.75C194.969 69.25 194.906 67.75 194.719 66.25C194.594 64.6875 194.344 63.2812 193.969 62.0312C193.656 60.7188 193.25 59.6875 192.75 58.9375C192.25 58.125 191.75 57.7188 191.25 57.7188C190.688 57.8438 190.062 58.125 189.375 58.5625C188.812 58.9375 188.188 59.5312 187.5 60.3438C186.812 61.1562 186.156 62.3125 185.531 63.8125C185.469 63.625 185.406 63.2812 185.344 62.7812C185.281 62.3438 185.219 61.7812 185.156 61.0938C185.156 60.3438 185.219 59.3438 185.344 58.0938C184.469 59.1562 183.781 60.4062 183.281 61.8438C182.844 63.2812 182.5 64.6562 182.25 65.9688C182 67.5312 181.812 69.0938 181.688 70.6562C181.625 72.3438 181.688 74 181.875 75.625C182.125 77.25 182.5 78.6875 183 79.9375C183.562 81.1875 184.219 82.1875 184.969 82.9375C185.719 83.6875 186.625 84.0312 187.688 83.9688C188.75 83.9062 189.688 83.4688 190.5 82.6562C191.312 81.8438 192.031 80.8125 192.656 79.5625C193.281 78.3125 193.781 76.9062 194.156 75.3438C194.531 73.7812 194.781 72.25 194.906 70.75ZM231.75 59.2188C231.75 60.0938 231.5 61 231 61.9375C230.562 62.8125 230 63.6562 229.312 64.4688C228.625 65.2812 227.844 66 226.969 66.625C226.156 67.1875 225.375 67.5312 224.625 67.6562C225.125 65.7188 225.281 64.2188 225.094 63.1562C224.906 62.0938 224.594 61.3125 224.156 60.8125C223.656 60.25 223.031 59.9375 222.281 59.875C221.156 59.875 220.062 60.5312 219 61.8438C218 63.0938 217.125 64.6562 216.375 66.5312C215.625 68.3438 215.031 70.3125 214.594 72.4375C214.156 74.5 213.938 76.375 213.938 78.0625C213.875 79.25 213.906 80.4062 214.031 81.5312C214.094 82.4688 214.188 83.4375 214.312 84.4375C214.5 85.4375 214.75 86.2188 215.062 86.7812C214.688 87.0938 214.062 87.4688 213.188 87.9062C212.375 88.3438 211.5 88.625 210.562 88.75C209.688 88.875 208.875 88.7188 208.125 88.2812C207.438 87.8438 207.062 86.9062 207 85.4688C206.875 84.0938 206.781 82.5625 206.719 80.875C206.719 79.125 206.719 77.4062 206.719 75.7188C206.781 73.9688 206.844 72.25 206.906 70.5625C206.969 68.875 207.062 67.3125 207.188 65.875C207.312 63.125 207.375 61 207.375 59.5C207.375 58 207.344 56.5625 207.281 55.1875C207.281 54.9375 207.688 54.5938 208.5 54.1562C209.375 53.6562 210.312 53.2188 211.312 52.8438C212.375 52.4688 213.344 52.25 214.219 52.1875C215.094 52.125 215.531 52.3125 215.531 52.75C215.531 53.4375 215.438 54.8125 215.25 56.875C215.125 58.875 214.938 60.9688 214.688 63.1562C215.125 61.9688 215.688 60.6875 216.375 59.3125C217.125 57.9375 217.969 56.6562 218.906 55.4688C219.844 54.2812 220.906 53.3125 222.094 52.5625C223.281 51.75 224.594 51.3438 226.031 51.3438C227.156 51.3438 228.062 51.6875 228.75 52.375C229.5 53.0625 230.094 53.8438 230.531 54.7188C230.969 55.5938 231.281 56.4688 231.469 57.3438C231.656 58.2188 231.75 58.8438 231.75 59.2188Z" fill="#B71C1C"/>
<path d="M284.906 92.5938C284.281 93.4688 283.562 94.125 282.75 94.5625C281.938 95.0625 281.156 95.4062 280.406 95.5938C279.531 95.8438 278.594 95.9375 277.594 95.875C277.219 95.875 276.812 95.7812 276.375 95.5938C276 95.4688 275.594 95.2812 275.156 95.0312C274.719 94.8438 274.344 94.5312 274.031 94.0938C273.156 90.9688 272.375 87.9375 271.688 85C271 82.0625 270.406 79.4375 269.906 77.125C269.281 74.4375 268.75 71.9062 268.312 69.5312C266.625 69.4688 264.094 69.4688 260.719 69.5312C257.406 69.5312 253.812 69.7188 249.938 70.0938C248.75 73.8438 247.812 77 247.125 79.5625C246.438 82.125 245.938 84.25 245.625 85.9375C245.312 87.625 245.188 89 245.25 90.0625C245.312 91.1875 245.5 92.1562 245.812 92.9688C244.938 93.8438 244.062 94.4688 243.188 94.8438C242.375 95.2812 241.625 95.5625 240.938 95.6875C240.125 95.875 239.344 95.9375 238.594 95.875C237.594 95.75 236.781 95.5625 236.156 95.3125C235.531 95.125 235.062 94.7812 234.75 94.2812C234.5 93.8438 234.406 93.1875 234.469 92.3125C234.594 91.4375 234.844 90.2812 235.219 88.8438C235.594 87.5938 236.281 85.375 237.281 82.1875C238.344 78.9375 239.531 75.25 240.844 71.125C238.469 71.3125 236.625 71.1875 235.312 70.75C234.062 70.3125 233.188 69.125 232.688 67.1875C233.688 66.875 234.75 66.5938 235.875 66.3438C237.062 66.0312 238.188 65.75 239.25 65.5C240.438 65.25 241.656 65.0312 242.906 64.8438C244.219 60.7188 245.562 56.6562 246.938 52.6562C248.312 48.6562 249.594 45.0625 250.781 41.875L256.219 27.3438C256.344 26.9688 257 26.5625 258.188 26.125C259.375 25.6875 260.688 25.3437 262.125 25.0938C263.562 24.7812 264.938 24.625 266.25 24.625C267.562 24.625 268.406 24.9062 268.781 25.4688C268.969 26.7812 269.219 28.4063 269.531 30.3438C269.906 32.2812 270.25 34.1562 270.562 35.9688C270.938 38.0938 271.375 40.2812 271.875 42.5312C272.438 45.6562 273.031 49.125 273.656 52.9375C274.344 56.75 275.188 60.8125 276.188 65.125C277.188 69.4375 278.375 73.9062 279.75 78.5312C281.125 83.1562 282.844 87.8438 284.906 92.5938ZM258.844 63.25C260.844 63.1875 262.5 63.1562 263.812 63.1562C265.125 63.1562 266.25 63.1875 267.188 63.25L266.906 61.8438C266.531 59.5312 266.125 57.0625 265.688 54.4375C265.312 51.8125 264.906 49.2188 264.469 46.6562C264.094 44.0938 263.719 41.6562 263.344 39.3438C262.969 37.0312 262.656 35 262.406 33.25C261.781 34.875 261.062 36.8438 260.25 39.1562C259.438 41.4062 258.562 43.875 257.625 46.5625C256.688 49.25 255.719 52.0625 254.719 55C253.781 57.9375 252.844 60.8438 251.906 63.7188C253.031 63.5938 254.156 63.5 255.281 63.4375C256.406 63.375 257.594 63.3125 258.844 63.25ZM306.656 50.875C308.406 50.875 310.031 51.375 311.531 52.375C313.031 53.375 314.312 54.6875 315.375 56.3125C316.438 57.9375 317.281 59.8125 317.906 61.9375C318.531 64 318.844 66.1562 318.844 68.4062C318.844 70.6562 318.594 73.0312 318.094 75.5312C317.594 78.0312 316.812 80.3438 315.75 82.4688C314.688 84.5938 313.312 86.375 311.625 87.8125C309.938 89.1875 307.875 89.875 305.438 89.875C303.5 89.875 301.656 89.1875 299.906 87.8125C298.219 86.375 296.906 84.5938 295.969 82.4688C295.844 84.6562 295.562 86.875 295.125 89.125C294.688 91.4375 294.469 94.1875 294.469 97.375C294.469 98.3125 294.5 99.375 294.562 100.562C294.625 101.75 294.719 102.938 294.844 104.125C294.969 105.312 295.156 106.406 295.406 107.406C295.656 108.406 295.938 109.188 296.25 109.75C295.188 110.375 294.219 110.844 293.344 111.156C292.531 111.469 291.812 111.688 291.188 111.812C290.5 112 289.844 112.094 289.219 112.094C288.406 112.094 287.875 111.75 287.625 111.062C287.375 110.375 287.25 109.156 287.25 107.406C287.25 106.281 287.281 104.656 287.344 102.531C287.469 100.469 287.594 98.0938 287.719 95.4062C287.906 92.7188 288.062 89.9062 288.188 86.9688C288.375 83.9688 288.531 81.0312 288.656 78.1562C288.844 75.2812 288.969 72.625 289.031 70.1875C289.156 67.6875 289.219 65.5938 289.219 63.9062C289.219 61.8438 289.188 60.25 289.125 59.125C289.062 57.9375 288.969 57.0625 288.844 56.5C288.781 55.875 288.688 55.4375 288.562 55.1875C288.438 54.9375 288.281 54.6562 288.094 54.3438C288.656 53.9062 289.312 53.5312 290.062 53.2188C290.875 52.8438 291.656 52.5938 292.406 52.4688C293.219 52.2812 293.938 52.2188 294.562 52.2812C295.25 52.3438 295.781 52.5 296.156 52.75C296.469 53.0625 296.688 53.5312 296.812 54.1562C297 54.7812 297.156 55.7188 297.281 56.9688C298.469 55.3438 299.812 53.9375 301.312 52.75C302.875 51.5 304.656 50.875 306.656 50.875ZM303 84.3438C304.125 84.3438 305.188 83.8125 306.188 82.75C307.25 81.6875 308.156 80.3438 308.906 78.7188C309.719 77.0312 310.344 75.1875 310.781 73.1875C311.281 71.125 311.531 69.0938 311.531 67.0938C311.531 64.9062 311.312 63.125 310.875 61.75C310.5 60.3125 310 59.1875 309.375 58.375C308.812 57.5 308.188 56.9062 307.5 56.5938C306.875 56.2188 306.312 56.0312 305.812 56.0312C304.625 56.0312 303.5 56.5312 302.438 57.5312C301.375 58.4688 300.438 59.7188 299.625 61.2812C298.812 62.7812 298.156 64.4688 297.656 66.3438C297.219 68.2188 297 70.0938 297 71.9688C297 73.7188 297.156 75.3438 297.469 76.8438C297.844 78.3438 298.312 79.6562 298.875 80.7812C299.438 81.9062 300.062 82.7812 300.75 83.4062C301.5 84.0312 302.25 84.3438 303 84.3438ZM342.562 50.875C344.312 50.875 345.938 51.375 347.438 52.375C348.938 53.375 350.219 54.6875 351.281 56.3125C352.344 57.9375 353.188 59.8125 353.812 61.9375C354.438 64 354.75 66.1562 354.75 68.4062C354.75 70.6562 354.5 73.0312 354 75.5312C353.5 78.0312 352.719 80.3438 351.656 82.4688C350.594 84.5938 349.219 86.375 347.531 87.8125C345.844 89.1875 343.781 89.875 341.344 89.875C339.406 89.875 337.562 89.1875 335.812 87.8125C334.125 86.375 332.812 84.5938 331.875 82.4688C331.75 84.6562 331.469 86.875 331.031 89.125C330.594 91.4375 330.375 94.1875 330.375 97.375C330.375 98.3125 330.406 99.375 330.469 100.562C330.531 101.75 330.625 102.938 330.75 104.125C330.875 105.312 331.062 106.406 331.312 107.406C331.562 108.406 331.844 109.188 332.156 109.75C331.094 110.375 330.125 110.844 329.25 111.156C328.438 111.469 327.719 111.688 327.094 111.812C326.406 112 325.75 112.094 325.125 112.094C324.312 112.094 323.781 111.75 323.531 111.062C323.281 110.375 323.156 109.156 323.156 107.406C323.156 106.281 323.188 104.656 323.25 102.531C323.375 100.469 323.5 98.0938 323.625 95.4062C323.812 92.7188 323.969 89.9062 324.094 86.9688C324.281 83.9688 324.438 81.0312 324.562 78.1562C324.75 75.2812 324.875 72.625 324.938 70.1875C325.062 67.6875 325.125 65.5938 325.125 63.9062C325.125 61.8438 325.094 60.25 325.031 59.125C324.969 57.9375 324.875 57.0625 324.75 56.5C324.688 55.875 324.594 55.4375 324.469 55.1875C324.344 54.9375 324.188 54.6562 324 54.3438C324.562 53.9062 325.219 53.5312 325.969 53.2188C326.781 52.8438 327.562 52.5938 328.312 52.4688C329.125 52.2812 329.844 52.2188 330.469 52.2812C331.156 52.3438 331.688 52.5 332.062 52.75C332.375 53.0625 332.594 53.5312 332.719 54.1562C332.906 54.7812 333.062 55.7188 333.188 56.9688C334.375 55.3438 335.719 53.9375 337.219 52.75C338.781 51.5 340.562 50.875 342.562 50.875ZM338.906 84.3438C340.031 84.3438 341.094 83.8125 342.094 82.75C343.156 81.6875 344.062 80.3438 344.812 78.7188C345.625 77.0312 346.25 75.1875 346.688 73.1875C347.188 71.125 347.438 69.0938 347.438 67.0938C347.438 64.9062 347.219 63.125 346.781 61.75C346.406 60.3125 345.906 59.1875 345.281 58.375C344.719 57.5 344.094 56.9062 343.406 56.5938C342.781 56.2188 342.219 56.0312 341.719 56.0312C340.531 56.0312 339.406 56.5312 338.344 57.5312C337.281 58.4688 336.344 59.7188 335.531 61.2812C334.719 62.7812 334.062 64.4688 333.562 66.3438C333.125 68.2188 332.906 70.0938 332.906 71.9688C332.906 73.7188 333.062 75.3438 333.375 76.8438C333.75 78.3438 334.219 79.6562 334.781 80.7812C335.344 81.9062 335.969 82.7812 336.656 83.4062C337.406 84.0312 338.156 84.3438 338.906 84.3438Z" fill="black"/>
</svg>
