<svg width="149" height="144" viewBox="0 0 149 144" fill="none" xmlns="http://www.w3.org/2000/svg">
<ellipse cx="74.5" cy="72" rx="74.5" ry="72" fill="#E4E3E3"/>
<path d="M81.4062 92.3438C80.7812 90.4062 80.1562 88.6875 79.5312 87.1875C78.9688 85.6875 78.4688 84.4062 78.0312 83.3438C75.5938 84.1562 72.9375 84.7188 70.0625 85.0312C70.0625 89.0312 70.1562 92.4375 70.3438 95.25C70.4062 97 70.4688 98.5 70.5312 99.75C70.6562 100.938 70.75 101.969 70.8125 102.844C70.9375 103.719 71.0625 104.5 71.1875 105.188C71.3125 105.938 71.5 106.656 71.75 107.344C70.5 108.281 69.2812 108.969 68.0938 109.406C66.9688 109.844 65.9688 110.156 65.0938 110.344C64.0312 110.594 63.0938 110.656 62.2812 110.531C61.9688 109.656 61.6875 108.719 61.4375 107.719C61.1875 106.781 61 105.469 60.875 103.781C60.8125 102.156 60.7812 100.062 60.7812 97.5C60.7812 94.9375 60.875 91.6562 61.0625 87.6562C61.125 87.2188 61.1562 86.7812 61.1562 86.3438C61.1562 85.9062 61.1875 85.4688 61.25 85.0312C60.6875 84.9688 60.0938 84.9062 59.4688 84.8438C58.9062 84.7812 58.3438 84.7188 57.7812 84.6562C57.4062 83.6562 57.1562 82.7812 57.0312 82.0312C56.9062 81.2188 56.8438 80.5625 56.8438 80.0625C56.8438 79.4375 56.9062 78.9375 57.0312 78.5625C58.0312 78.75 59.0312 78.8438 60.0312 78.8438H61.4375C61.5625 76.2188 61.6875 73.5625 61.8125 70.875C61.9375 68.125 62.0312 65.4688 62.0938 62.9062C62.2188 60.2812 62.3125 57.8125 62.375 55.5C62.4375 53.125 62.5 50.9688 62.5625 49.0312C60.6875 50.2812 59.0625 51.9062 57.6875 53.9062C56.3125 55.9062 55.375 58.2188 54.875 60.8438C54.0625 60.7188 53.375 60.3438 52.8125 59.7188C52.25 59.0312 51.7812 58.3438 51.4062 57.6562C50.9688 56.8438 50.5938 55.9375 50.2812 54.9375C49.9688 53.75 49.9688 52.5625 50.2812 51.375C50.5938 50.125 51.0625 48.9688 51.6875 47.9062C52.3125 46.7812 53.0312 45.8125 53.8438 45C54.6562 44.125 55.4375 43.4375 56.1875 42.9375C57.5 42.125 58.8438 41.4062 60.2188 40.7812C61.6562 40.0938 63.25 39.5312 65 39.0938C65.6875 38.4062 66.4375 37.7812 67.25 37.2188C68.125 36.6562 68.9375 36.3125 69.6875 36.1875C70.75 35.9375 71.3438 36.5938 71.4688 38.1562C72.0312 38.0938 72.625 38.0625 73.25 38.0625C73.875 38 74.5312 37.9688 75.2188 37.9688C77.5938 37.9688 80.0625 38.3438 82.625 39.0938C85.1875 39.8438 87.5312 41.0625 89.6562 42.75C91.8438 44.375 93.625 46.5312 95 49.2188C96.375 51.8438 97.0625 55.0625 97.0625 58.875C97.0625 63.1875 96.0312 67.1562 93.9688 70.7812C91.9688 74.4062 89.0938 77.4062 85.3438 79.7812C85.7812 80.9062 86.3438 82.3125 87.0312 84C87.7188 85.6875 88.4062 87.5938 89.0938 89.7188C90.0938 92.3438 91.1562 94.8125 92.2812 97.125C93.4688 99.375 94.6875 101.344 95.9375 103.031C97.1875 104.719 98.5 106.062 99.875 107.062C101.25 108.125 102.625 108.75 104 108.938C103.188 110.188 102.25 111.062 101.188 111.562C100.125 112.062 99.0625 112.375 98 112.5C96.8125 112.688 95.5625 112.688 94.25 112.5C92.4375 112.125 90.875 111.25 89.5625 109.875C88.25 108.5 87.0938 106.844 86.0938 104.906C85.1562 102.969 84.2812 100.906 83.4688 98.7188C82.7188 96.4688 82.0312 94.3438 81.4062 92.3438ZM70.5312 52.4062C70.5312 53.7812 70.5 55.4375 70.4375 57.375C70.375 59.3125 70.3125 61.4062 70.25 63.6562C70.25 65.9062 70.2188 68.2812 70.1562 70.7812C70.0938 73.2188 70.0625 75.6562 70.0625 78.0938C71.75 77.8438 73.5938 77.4375 75.5938 76.875C77.6562 76.3125 79.5625 75.375 81.3125 74.0625C83.0625 72.75 84.5312 71 85.7188 68.8125C86.9062 66.625 87.5 63.8125 87.5 60.375C87.5 57.75 87.0312 55.5312 86.0938 53.7188C85.2188 51.8438 84.0625 50.3438 82.625 49.2188C81.1875 48.0312 79.5938 47.1875 77.8438 46.6875C76.1562 46.125 74.4688 45.8438 72.7812 45.8438C72.4688 45.8438 72.1562 45.8438 71.8438 45.8438C71.5312 45.8438 71.1875 45.875 70.8125 45.9375C70.625 47.9375 70.5312 50.0938 70.5312 52.4062Z" fill="#B71C1C"/>
</svg>
